<svg width="12" height="12" viewBox="0 0 12 12" fill="none" xmlns="http://www.w3.org/2000/svg">
<g clip-path="url(#clip0_905_336)">
<path d="M11.9995 6.03652C11.9995 2.70202 9.31305 -0.000976562 5.99955 -0.000976562C2.68455 -0.000226562 -0.00195312 2.70202 -0.00195312 6.03727C-0.00195312 9.05002 2.19255 11.5475 5.06055 12.0005V7.78177H3.53805V6.03727H5.06205V4.70602C5.06205 3.19327 5.9583 2.35777 7.32855 2.35777C7.98555 2.35777 8.6718 2.47552 8.6718 2.47552V3.96052H7.91505C7.1703 3.96052 6.9378 4.42627 6.9378 4.90402V6.03652H8.6013L8.3358 7.78102H6.93705V11.9998C9.80505 11.5468 11.9995 9.04927 11.9995 6.03652Z" fill="white"/>
</g>
<defs>
<clipPath id="clip0_905_336">
<rect width="12" height="12" fill="white"/>
</clipPath>
</defs>
</svg>
