<svg width="12" height="12" viewBox="0 0 12 12" fill="none" xmlns="http://www.w3.org/2000/svg">
<g clip-path="url(#clip0_905_332)">
<path d="M6 0.148473C2.6865 0.148473 0 2.83497 0 6.14847C0 8.79972 1.719 11.0482 4.10325 11.8417C4.40325 11.8972 4.5135 11.7112 4.5135 11.553C4.5135 11.4097 4.5075 10.9372 4.50525 10.4362C2.83575 10.7992 2.484 9.72822 2.484 9.72822C2.211 9.03447 1.818 8.84997 1.818 8.84997C1.2735 8.47722 1.85925 8.48547 1.85925 8.48547C2.4615 8.52747 2.77875 9.10347 2.77875 9.10347C3.31425 10.0207 4.18275 9.75522 4.52475 9.60222C4.57875 9.21447 4.734 8.94972 4.90575 8.79972C3.573 8.64822 2.172 8.13372 2.172 5.83422C2.172 5.17947 2.40675 4.64397 2.79 4.22397C2.72775 4.07247 2.52225 3.46272 2.84775 2.63622C2.84775 2.63622 3.35175 2.47497 4.4985 3.25122C4.977 3.11847 5.49 3.05172 6 3.04947C6.51 3.05172 7.02375 3.11847 7.503 3.25122C8.64825 2.47497 9.1515 2.63622 9.1515 2.63622C9.47775 3.46272 9.273 4.07322 9.21075 4.22397C9.5955 4.64397 9.828 5.17947 9.828 5.83422C9.828 8.13897 8.424 8.64597 7.08825 8.79447C7.3035 8.98047 7.4955 9.34572 7.4955 9.90522C7.4955 10.7077 7.48875 11.3542 7.48875 11.5515C7.48875 11.7112 7.59675 11.898 7.90125 11.8395C10.284 11.0452 12.0007 8.79672 12.0007 6.14697C12.0007 2.83347 9.31425 0.146973 6.00075 0.146973L6 0.148473Z" fill="white"/>
</g>
<defs>
<clipPath id="clip0_905_332">
<rect width="12" height="12" fill="white"/>
</clipPath>
</defs>
</svg>
