<svg width="12" height="12" viewBox="0 0 12 12" fill="none" xmlns="http://www.w3.org/2000/svg">
<g clip-path="url(#clip0_905_334)">
<path fill-rule="evenodd" clip-rule="evenodd" d="M10.2259 10.2251H8.44613V7.44037C8.44613 6.77625 8.43488 5.922 7.52138 5.922C6.5955 5.922 6.45412 6.64575 6.45412 7.39275V10.2251H4.67625V4.4985H6.3825V5.2815H6.40688C6.64425 4.83112 7.22475 4.35638 8.09062 4.35638C9.89287 4.35638 10.2259 5.54212 10.2259 7.0845V10.2251ZM2.66963 3.71625C2.09775 3.71625 1.63688 3.25388 1.63688 2.68388C1.63688 2.11425 2.09775 1.65188 2.66963 1.65188C3.23887 1.65188 3.70125 2.11425 3.70125 2.68388C3.70125 3.25388 3.23887 3.71625 2.66963 3.71625ZM3.55988 10.2251H1.77825V4.4985H3.55988V10.2251ZM11.5001 0H0.50025C0.223875 0 0 0.223875 0 0.499875V11.4998C0 11.7761 0.223875 12 0.50025 12H11.5001C11.7761 12 12 11.7761 12 11.4998V0.499875C12 0.223875 11.7761 0 11.5001 0Z" fill="white"/>
</g>
<defs>
<clipPath id="clip0_905_334">
<rect width="12" height="12" fill="white"/>
</clipPath>
</defs>
</svg>
